<?xml version="1.0" encoding="UTF-8" standalone="no"?><!DOCTYPE svg PUBLIC "-//W3C//DTD SVG 1.1//EN" "http://www.w3.org/Graphics/SVG/1.1/DTD/svg11.dtd"><svg width="100%" height="100%" viewBox="0 0 90 90" version="1.1" xmlns="http://www.w3.org/2000/svg" xmlns:xlink="http://www.w3.org/1999/xlink" xml:space="preserve" style="fill-rule:evenodd;clip-rule:evenodd;stroke-linejoin:round;stroke-miterlimit:1.41421;"><g><path d="M50,33.524c-2.6,0 -4.7,-1.924 -5,-4.524c-0.7,-7.9 2.1,-15.6 7.6,-21.1c5.5,-5.5 13.2,-8.3 21.1,-7.6c2.4,0.2 4.3,2.1 4.5,4.5c0.7,7.9 -2.1,15.6 -7.6,21.1c-2,2 -5.1,2 -7.1,0c-2,-2 -2,-5.1 0,-7.1c2.3,-2.3 3.8,-5.2 4.4,-8.3c-3.1,0.6 -6,2.1 -8.3,4.4c-3.4,3.4 -5.1,8.2 -4.7,13.1c0.2,2.8 -1.8,5.2 -4.5,5.4c-0.1,0.2 -0.3,0.124 -0.4,0.124Z" style="fill:#f1ae46;fill-rule:nonzero;"/><path d="M45,89.7c-6.9,0 -13.9,-2.1 -19.8,-6.6c-7.2,-5.3 -11.8,-13 -13.1,-21.8c-1.3,-8.8 0.9,-17.6 6.2,-24.7c3,-4.1 6.8,-7.3 11.3,-9.6c2.4,-1.3 5.5,-0.3 6.7,2.1c1.3,2.4 0.3,5.5 -2.1,6.7c-3.1,1.6 -5.8,3.9 -7.9,6.7c-3.7,5 -5.3,11.1 -4.4,17.3c0.9,6.2 4.1,11.6 9.1,15.3c10.3,7.7 24.9,5.5 32.6,-4.8c7.7,-10.3 5.5,-24.9 -4.8,-32.6c-3,-2.2 -6.3,-3.6 -9.9,-4.3c-2.7,-0.5 -4.3,-3.238 -3.9,-5.938c0.5,-2.7 2.9,-4.362 5.6,-3.962c5.2,0.9 10,2.9 14.2,6.1c14.7,11 17.8,31.9 6.8,46.6c-6.4,8.9 -16.5,13.5 -26.6,13.5Z" style="fill:#f1ae46;fill-rule:nonzero;"/><path d="M38.082,42.248c5.03,0 9.113,4.083 9.113,9.113c0,5.029 -4.083,9.113 -9.113,9.113c-5.029,0 -9.113,-4.084 -9.113,-9.113c0,-5.03 4.084,-9.113 9.113,-9.113Zm0,4.972c2.285,0 4.141,1.856 4.141,4.141c0,2.285 -1.856,4.14 -4.141,4.14c-2.285,0 -4.14,-1.855 -4.14,-4.14c0,-2.285 1.855,-4.141 4.14,-4.141Z" style="fill:#f1ae46;"/></g></svg>